<svg width="196" height="36" viewBox="0 0 196 36" fill="none" xmlns="http://www.w3.org/2000/svg">
<path d="M11.5869 0.696044L-0.000638962 0.696044L-0.00064043 34.3762L9.04672 34.3762L9.04672 26.0231L11.5947 26.0231C27.0082 26.0231 29.0152 17.8749 29.0152 13.4305C29.0152 8.98605 27.0003 0.696045 11.5869 0.696044ZM13.2646 18.9545L9.04672 18.9545L9.04672 7.77249L13.2646 7.77249C17.953 7.77249 19.9678 10.6015 19.9678 13.3596C19.9678 16.1886 17.953 18.9545 13.2646 18.9545Z" fill="#27363A"/>
<path d="M161.754 34.3762L161.754 0.696045L152.707 0.696045L152.707 34.3762L161.754 34.3762Z" fill="#27363A"/>
<path d="M178.58 34.3762C193.993 34.3762 196 26.094 196 21.6496C196 17.2051 193.993 9.04909 178.58 9.04909L176.032 9.04909L176.032 0.696044L166.984 0.696044L166.984 34.3762L178.58 34.3762ZM180.249 16.1255C184.938 16.1255 186.953 18.8836 186.953 21.7126C186.953 24.4707 184.946 27.2997 180.249 27.2997L176.032 27.2997L176.032 16.1255L180.249 16.1255Z" fill="#27363A"/>
<path d="M146.749 22.2557C149.36 22.2557 151.508 20.0966 151.508 17.5434C151.508 14.8483 149.36 12.697 146.749 12.697C144.201 12.697 141.99 14.8562 141.99 17.5434C141.99 20.0966 144.201 22.2557 146.749 22.2557Z" fill="#27363A"/>
<path d="M140.783 34.3762L140.783 0.696045L131.735 0.696045L131.735 34.3762L140.783 34.3762Z" fill="#27363A"/>
<path d="M41.7479 30.1991C41.7479 27.441 39.537 25.2187 36.8557 25.2187C34.245 25.2187 31.9636 27.441 31.9636 30.1991C31.9636 32.8941 34.245 35.0454 36.8557 35.0454C39.5291 35.0533 41.7479 32.8941 41.7479 30.1991Z" fill="#27363A"/>
<path d="M112.308 0.0258783C101.52 0.0258778 97.9685 6.02274 97.9685 10.6012L107.079 10.6012C107.079 8.37893 109.423 6.96049 112.308 6.96049C115.789 6.96049 117.67 8.37105 117.67 11.5389L117.67 13.7611L110.701 13.7611C100.446 13.7611 96.0947 19.0803 96.0947 24.5413C96.0947 30.0023 100.783 35.0456 107.957 35.0456C113.319 35.0456 116.604 32.3506 117.67 30.3333L117.67 34.3758L126.577 34.3758L126.577 12.4845C126.577 6.02274 123.362 0.0258788 112.308 0.0258783ZM117.663 22.524C117.663 25.282 114.644 28.048 110.026 28.048C107.416 28.048 105.205 26.4326 105.205 24.1394C105.205 21.8463 107.149 20.1678 110.763 20.1678L117.663 20.1678L117.663 22.524Z" fill="#27363A"/>
<path d="M93.61 9.7895C93.61 6.02274 90.5917 0.0258788 78.5337 0.0258782C66.7424 0.0258777 63.5201 6.02274 63.5201 10.6012L73.0379 10.6012C73.0379 8.37894 75.1861 7.10234 78.8709 7.10234C82.4929 7.10234 84.5705 8.37894 84.5705 10.4672C84.5705 12.6264 82.5635 13.903 78.5416 13.966L73.3123 14.037L73.3123 21.1055L78.5416 21.1055C82.5635 21.1055 84.5705 22.4531 84.5705 24.6044C84.5705 26.6926 82.4929 28.1032 78.8709 28.1032C75.1861 28.1032 73.0379 26.6926 73.0379 24.4625L63.5201 24.4625C63.5201 29.0409 66.7345 35.0378 78.5337 35.0378C90.5916 35.0378 93.61 29.0409 93.61 25.2742C93.61 21.3025 91.3286 18.1347 86.2405 17.5988L86.2405 17.4649C91.3286 16.929 93.61 13.769 93.61 9.7895Z" fill="#27363A"/>
<path d="M49.2511 0.696044C33.8377 0.696044 31.8307 8.97817 31.8307 13.4226C31.8307 17.8671 33.8377 26.0152 49.2511 26.0152L51.7991 26.0152L51.7991 34.3683L60.8386 34.3683L60.8386 0.696045L49.2511 0.696044ZM47.5733 18.9546C42.885 18.9546 40.8702 16.1965 40.8702 13.3675C40.8702 10.6094 42.8772 7.78038 47.5733 7.78038L51.7912 7.78038L51.7912 18.9624L47.5733 18.9624L47.5733 18.9546Z" fill="#27363A"/>
</svg>
